<?xml version="1.0" encoding="UTF-8" standalone="no"?>
<svg
   xmlns:dc="http://purl.org/dc/elements/1.1/"
   xmlns:cc="http://creativecommons.org/ns#"
   xmlns:rdf="http://www.w3.org/1999/02/22-rdf-syntax-ns#"
   xmlns:svg="http://www.w3.org/2000/svg"
   xmlns="http://www.w3.org/2000/svg"
   xmlns:sodipodi="http://sodipodi.sourceforge.net/DTD/sodipodi-0.dtd"
   xmlns:inkscape="http://www.inkscape.org/namespaces/inkscape"
   width="24"
   height="24"
   fill-rule="evenodd"
   clip-rule="evenodd"
   version="1.1"
   id="svg1342"
   sodipodi:docname="speech-bubble-plus-thin.svg"
   inkscape:version="1.0 (4035a4fb49, 2020-05-01)">
  <metadata
     id="metadata1348">
    <rdf:RDF>
      <cc:Work
         rdf:about="">
        <dc:format>image/svg+xml</dc:format>
        <dc:type
           rdf:resource="http://purl.org/dc/dcmitype/StillImage" />
        <dc:title />
      </cc:Work>
    </rdf:RDF>
  </metadata>
  <defs
     id="defs1346" />
  <sodipodi:namedview
     inkscape:document-rotation="0"
     pagecolor="#ffffff"
     bordercolor="#666666"
     borderopacity="1"
     objecttolerance="10"
     gridtolerance="10"
     guidetolerance="10"
     inkscape:pageopacity="0"
     inkscape:pageshadow="2"
     inkscape:window-width="2560"
     inkscape:window-height="1520"
     id="namedview1344"
     showgrid="false"
     showguides="false"
     inkscape:zoom="16"
     inkscape:cx="-14.231021"
     inkscape:cy="17.125969"
     inkscape:window-x="-11"
     inkscape:window-y="-11"
     inkscape:window-maximized="1"
     inkscape:current-layer="svg1342" />
  <path
     sodipodi:nodetypes="sscccsccscccssccs"
     d="M 12.408203,1 C 7.1752856,1 2.5,5.226817 2.5,11.007812 c 0,2.050001 0.6095143,4.062999 1.6894531,5.625 L 2.5449219,23 8.2792969,20 c 1.4077185,0.438999 2.7523951,0.640625 4.0156251,0.640625 3.871477,0 7.144293,-2.215037 8.816406,-4.980469 -0.362971,-0.0088 -0.589477,0.03173 -0.992187,0.0078 -1.617858,2.266425 -4.568174,3.972656 -7.824219,3.972656 -1.553025,0 -2.8083689,-0.299312 -4.0839845,-0.695313 L 3.8710938,21.216797 5.1132812,16.408203 C 4.0333422,14.844227 3.3261719,13.281815 3.3261719,11.007812 3.3261719,6.0418166 7.4006858,2 12.408203,2 c 3.367365,0 6.303938,1.8814116 7.871094,4.5917969 0.354061,0.00857 0.673422,0.0044 1,0.00586 C 19.626694,3.1978921 16.159641,1 12.408203,1 Z"
     style="stroke-width:0.908645"
     id="path1340" />
  <path
     d="M 14.380859,4.9453125 V 10.177734 H 9.1738281 v 1.53711 h 5.2070309 v 5.230468 h 1.585938 v -5.230468 h 5.207031 v -1.53711 H 15.966797 V 4.9453125 Z"
     inkscape:transform-center-y="-0.021845074"
     inkscape:transform-center-x="0.012305862"
     style="font-style:normal;font-variant:normal;font-weight:normal;font-stretch:normal;font-size:19.6138px;line-height:1.25;font-family:sans-serif;-inkscape-font-specification:'sans-serif, Normal';font-variant-ligatures:normal;font-variant-caps:normal;font-variant-numeric:normal;font-variant-east-asian:normal;fill:#000000;fill-opacity:1;stroke:none;stroke-width:1.83879"
     id="text833" />
</svg>
